<svg width="70" height="99" viewBox="0 0 70 99" fill="none" 
  xmlns="http://www.w3.org/2000/svg">
  <path d="M45.3183 0.798584L56.5579 7.30267L12.295 32.9167L1.05551 26.4126L45.3183 0.798584Z" fill="#0052CC"/>
  <path d="M57.0111 8.66827L13.0269 34.1095L13.0255 46.9814L57.0097 21.5402L57.0111 8.66827Z" fill="#0052CC"/>
  <path d="M39.3236 33.7887L13.1194 48.946L13.118 61.8183L39.3222 46.661L39.3236 33.7887Z" fill="#0052CC"/>
  <path d="M29.2784 54.1382L13.0573 63.5212L13.0559 76.3937L29.277 67.0108L29.2784 54.1382Z" fill="#0052CC"/>
  <path d="M0.256799 27.6536L11.5624 34.1928L11.5581 47.0678L0.252441 40.5287L0.256799 27.6536Z" fill="#0052CC"/>
  <path d="M0.364376 42.4012L11.5329 48.861L11.5285 61.7361L0.360019 55.2763L0.364376 42.4012Z" fill="#0052CC"/>
  <path d="M0.359456 57.06L11.5317 63.522L11.5271 77.2463L0.354811 70.7843L0.359456 57.06Z" fill="#0052CC"/>
  <path d="M25.255 98.8041L14.0155 92.3L57.7759 66.9767L69.0155 73.4808L25.255 98.8041Z" fill="#0052CC"/>
  <path d="M13.1244 91.1869L57.0426 65.7838L57.0441 52.9119L13.1259 78.3149L13.1244 91.1869Z" fill="#0052CC"/>
  <path d="M30.7458 66.1046L56.95 50.9473L56.9515 38.0751L30.7472 53.2324L30.7458 66.1046Z" fill="#0052CC"/>
  <path d="M40.791 45.7551L57.0121 36.3722L57.0135 23.4996L40.7924 32.8826L40.791 45.7551Z" fill="#0052CC"/>
  <path d="M69.8142 72.326L58.5086 65.7869L58.5129 52.9118L69.8185 59.4509L69.8142 72.326Z" fill="#0052CC"/>
  <path d="M69.7073 57.4956L58.5388 51.0358L58.5432 38.1607L69.7117 44.6205L69.7073 57.4956Z" fill="#0052CC"/>
  <path d="M69.7115 42.8367L58.5392 36.3747L58.5438 22.897L69.7161 29.3591L69.7115 42.8367Z" fill="#0052CC"/>
</svg>
